<svg width="569" height="395" viewBox="0 0 569 395" fill="none" xmlns="http://www.w3.org/2000/svg">
<g clip-path="url(#clip0_2002_31347)">
<rect width="569" height="395" rx="12" fill="url(#paint0_radial_2002_31347)"/>
<rect opacity="0.4" width="570" height="34" transform="matrix(1 0 0 -1 0 364)" fill="#282974"/>
<path d="M467.118 248.065C467.118 248.065 435.363 227.539 425.8 207.568C416.237 187.597 409.733 160.929 411.642 158.919C413.552 156.909 473.851 205.856 488.085 248.321L467.118 248.065Z" fill="#457158"/>
<path d="M415.712 165.622C425.884 179.188 435.447 193.003 445.474 206.493C450.415 213.287 455.514 219.955 460.78 226.492C466.095 232.994 471.465 239.448 477.692 245.285C470.344 240.758 464.109 234.734 458.269 228.537C455.272 225.473 452.622 222.153 449.84 218.929C447.204 215.602 444.56 212.268 442.049 208.857C437.046 202.015 432.278 195.014 427.891 187.798C423.476 180.602 419.303 173.261 415.712 165.622Z" fill="#72A265"/>
<path d="M494.285 247.954C494.285 247.954 477.449 199.492 475.539 170.613C473.629 141.734 480.514 105.119 484.915 104.01C489.316 102.901 540.585 192.185 501.558 247.954H494.285Z" fill="#457158"/>
<path d="M486.638 110.685C489.683 121.555 492.153 132.57 494.181 143.654C495.26 149.186 496.084 154.759 496.983 160.326C497.758 165.906 498.506 171.493 499.121 177.101C499.744 182.702 500.159 188.331 500.588 193.953C500.831 199.589 501.197 205.224 501.114 210.874C501.121 222.145 500.498 233.521 497.966 244.543C498.077 241.722 498.215 238.914 498.409 236.127C498.478 233.327 498.416 230.519 498.429 227.726C498.506 224.939 498.277 222.132 498.222 219.338L498.09 215.151L497.827 210.964C497.198 199.804 496.167 188.65 494.928 177.524C493.786 166.384 492.354 155.265 490.942 144.132L486.638 110.685Z" fill="#5C8A5C"/>
<path d="M494.285 247.954C494.285 247.954 484.722 213.114 502.7 185.746C520.684 158.378 544.274 129.181 546.827 129.728C549.381 130.276 539.049 217.335 501.558 247.954H494.285Z" fill="#72A265"/>
<path d="M544.62 135.094C540.994 144.417 537.16 153.623 533.285 162.808L521.584 190.314L509.8 217.772C505.883 226.936 502.029 236.121 497.967 245.278C500.361 235.587 503.371 226.056 506.72 216.649C510.076 207.242 513.772 197.953 517.688 188.754C521.674 179.583 525.812 170.481 530.289 161.525C534.745 152.562 539.423 143.696 544.62 135.094Z" fill="#457158"/>
<path d="M497.536 246.402C497.536 246.402 510.926 210.785 535.028 197.711C559.129 184.637 583.618 173.983 587.064 175.979C590.51 177.983 574.436 221.405 504.809 247.954L497.536 246.402Z" fill="#5C8A5C"/>
<path d="M581.342 180.748C574.844 186.148 568.333 191.451 561.815 196.74C555.324 202.064 548.771 207.298 542.321 212.656L522.884 228.628C516.379 233.945 509.965 239.352 503.273 244.544C508.726 238.152 514.545 232.073 520.663 226.292C526.717 220.448 533.111 214.937 539.602 209.558C546.148 204.227 552.86 199.09 559.801 194.252C566.728 189.406 573.841 184.776 581.342 180.748Z" fill="#72A265"/>
<path d="M510.125 247.018C510.125 247.018 524.172 226.055 547.512 222.728C570.853 219.401 583.474 215.699 584.242 217.55C585.011 219.401 559.373 244.328 536.8 247.954C514.228 251.572 510.125 247.018 510.125 247.018Z" fill="#72A265"/>
<path d="M515.792 246.464C520.546 243.837 525.41 241.549 530.324 239.365C535.223 237.154 540.191 235.137 545.159 233.113C550.156 231.165 555.152 229.217 560.203 227.394C565.248 225.543 570.32 223.789 575.489 222.084C571.129 225.3 566.362 227.893 561.539 230.298C556.716 232.725 551.761 234.853 546.765 236.877C541.741 238.839 536.683 240.703 531.521 242.318C526.365 243.941 521.155 245.417 515.792 246.464Z" fill="#457158"/>
<path d="M485.87 246.027C485.87 246.027 460.239 224.767 451.818 191.389C443.403 158.005 439.957 126.956 442.635 127.129C445.313 127.309 496.277 183.66 495.661 246.464L485.87 246.027Z" fill="#5C8A5C"/>
<path d="M445.549 135.094C449.431 144.071 453.091 153.097 456.689 162.136L467.457 189.24C471.02 198.28 474.619 207.298 478.328 216.275C482.064 225.245 485.829 234.187 489.925 243.074C484.285 234.998 479.628 226.327 475.311 217.544C470.958 208.761 467.166 199.756 463.519 190.703C459.949 181.622 456.606 172.458 453.596 163.19C450.579 153.915 447.777 144.584 445.549 135.094Z" fill="#457158"/>
<path d="M479.802 247.018C479.802 247.018 465.755 226.055 442.415 222.728C419.074 219.401 406.453 215.699 405.685 217.55C404.916 219.401 430.554 244.328 453.127 247.954C475.706 251.572 479.802 247.018 479.802 247.018Z" fill="#72A265"/>
<path d="M474.142 246.464C469.388 243.837 464.524 241.549 459.611 239.365C454.712 237.154 449.743 235.137 444.775 233.113C439.779 231.165 434.783 229.217 429.731 227.394C424.687 225.543 419.614 223.789 414.445 222.084C418.805 225.3 423.572 227.893 428.396 230.298C433.219 232.725 438.173 234.853 443.169 236.877C448.193 238.839 453.251 240.703 458.414 242.318C463.562 243.941 468.779 245.417 474.142 246.464Z" fill="#5C8A5C"/>
<path d="M438.527 252.009V312.214C438.527 330.57 454.062 345.591 473.057 345.591H511.129C530.117 345.591 545.659 330.57 545.659 312.214V252.009H438.527V252.009Z" fill="#FFC727"/>
<path opacity="0.1" d="M521.163 252.009V312.214C521.163 330.57 505.628 345.591 486.634 345.591H511.123C530.111 345.591 545.652 330.57 545.652 312.214V252.009H521.163Z" fill="#482C80"/>
<path d="M553.954 245.742H430.229V258.269H553.954V245.742Z" fill="#FFC727"/>
<path d="M-37.0316 308.683C-44.5314 308.683 -50.6074 314.77 -50.6074 322.283V335.983C-50.6074 344.165 -43.9865 350.792 -35.8246 350.792H146.521C147.452 350.792 148.202 350.035 148.202 349.107C148.202 348.151 147.429 347.382 146.48 347.382H15.4145C9.33846 347.382 4.40498 342.445 4.40498 336.353V323.862C4.40498 317.682 9.40877 312.669 15.5786 312.669H146.152C147.283 312.669 148.202 311.747 148.202 310.615C148.202 309.552 147.341 308.689 146.281 308.689H-37.0316V308.683Z" fill="#CF3254"/>
<path d="M15.1982 312.669C12.8897 312.669 10.7511 313.432 8.99328 314.712C-2.66075 324.725 1.23564 341.078 9.27452 345.609C10.9327 346.725 12.9073 347.376 15.0342 347.376H143.264L142.631 343.361C141.236 334.522 141.236 325.518 142.631 316.678L143.264 312.663H15.1982V312.669Z" fill="#F6E2DA"/>
<path d="M11.2669 318.503C13.0247 317.218 17.7414 315.845 20.0499 315.845L143.27 313.696V312.663H15.1984C12.8899 312.663 10.7513 313.426 8.99352 314.706C-2.63122 324.702 1.2183 341.002 9.22203 345.574C4.88619 338.654 2.23781 326.263 11.2669 318.503Z" fill="#A5350C"/>
<path d="M100.162 324.133H35.9683C35.8101 324.133 35.687 323.91 35.687 323.64C35.687 323.364 35.8159 323.147 35.9683 323.147H100.162C100.32 323.147 100.443 323.37 100.443 323.64C100.449 323.91 100.32 324.133 100.162 324.133Z" fill="#E0CAD2"/>
<path d="M128.604 318.157H87.6769C87.5773 318.157 87.4952 318.028 87.4952 317.875C87.4952 317.717 87.5773 317.594 87.6769 317.594H128.604C128.703 317.594 128.785 317.723 128.785 317.875C128.785 318.028 128.703 318.157 128.604 318.157Z" fill="#E0CAD2"/>
<path d="M43.744 323.851V340.415L51.5368 334.275L59.2007 340.21L58.3101 323.786L43.744 323.851Z" fill="#655BD7"/>
<path d="M-22.2497 237.655C-28.6538 237.655 -33.851 242.856 -33.851 249.277V260.981C-33.851 267.972 -28.1968 273.636 -21.2184 273.636H134.579C135.376 273.636 136.014 272.99 136.014 272.198C136.014 271.382 135.352 270.719 134.538 270.719H22.5559C17.3647 270.719 13.1519 266.499 13.1519 261.298V250.627C13.1519 245.345 17.4291 241.06 22.7024 241.06H134.262C135.229 241.06 136.014 240.273 136.014 239.305C136.014 238.395 135.276 237.655 134.368 237.655H-22.2497Z" fill="#FFC727"/>
<path d="M22.3745 241.059C20.3999 241.059 18.5718 241.711 17.0719 242.809C7.11702 251.367 10.4451 265.336 17.3121 269.21C18.73 270.161 20.4175 270.719 22.2339 270.719H131.79L130.817 264.509C129.921 258.797 129.921 252.981 130.817 247.264L131.79 241.054H22.3745V241.059Z" fill="#F6E2DA"/>
<path d="M19.0101 246.049C20.5101 244.951 24.5412 243.777 26.5158 243.777L131.795 241.94V241.06H22.3733C20.3987 241.06 18.5706 241.711 17.0707 242.803C7.13927 251.343 10.4263 265.266 17.264 269.175C13.561 263.264 11.2993 252.676 19.0101 246.049Z" fill="#A5350C"/>
<path d="M94.9648 250.857H40.1165C39.9817 250.857 39.8762 250.669 39.8762 250.434C39.8762 250.199 39.9875 250.011 40.1165 250.011H94.9648C95.0996 250.011 95.205 250.199 95.205 250.434C95.2109 250.669 95.0996 250.857 94.9648 250.857Z" fill="#E0CAD2"/>
<path d="M118.894 262.496H64.0452C63.9104 262.496 63.8049 262.308 63.8049 262.073C63.8049 261.838 63.9163 261.651 64.0452 261.651H118.894C119.028 261.651 119.134 261.838 119.134 262.073C119.14 262.302 119.028 262.496 118.894 262.496Z" fill="#E0CAD2"/>
<path d="M119.268 245.75H84.3005C84.2126 245.75 84.1482 245.638 84.1482 245.509C84.1482 245.374 84.2185 245.269 84.3005 245.269H119.268C119.356 245.269 119.421 245.38 119.421 245.509C119.421 245.644 119.35 245.75 119.268 245.75Z" fill="#E0CAD2"/>
<path d="M82.3274 276.618C84.2609 276.618 86.0538 277.257 87.5245 278.332C97.286 286.725 94.0224 300.425 87.2901 304.222C85.9015 305.156 84.2433 305.702 82.4621 305.702H-24.967V276.618H82.3274Z" fill="#F6E2DA"/>
<path d="M126.089 273.284C132.37 273.284 137.462 278.385 137.462 284.677V296.152C137.462 303.008 131.919 308.56 125.076 308.56H-27.6983C-28.4776 308.56 -29.1104 307.926 -29.1104 307.146C-29.1104 306.347 -28.4658 305.696 -27.6631 305.696H82.1507C87.2424 305.696 91.3732 301.558 91.3732 296.457V285.992C91.3732 280.809 87.1838 276.612 82.0101 276.612H-27.3877C-28.3369 276.612 -29.1045 275.843 -29.1045 274.892C-29.1045 274 -28.3838 273.278 -27.4932 273.278H126.089V273.284Z" fill="#4F498A"/>
<path d="M85.6251 281.507C84.1545 280.433 80.2053 279.282 78.2659 279.282L-24.968 277.481V276.618H82.3264C84.2599 276.618 86.0529 277.257 87.5235 278.332C97.2616 286.708 94.039 300.36 87.3302 304.193C90.9688 298.394 93.1894 288.011 85.6251 281.507Z" fill="#39395B"/>
<path d="M11.145 286.226H64.927C65.0559 286.226 65.1672 286.121 65.1672 285.986C65.1672 285.857 65.0617 285.745 64.927 285.745H11.145C11.0161 285.745 10.9048 285.851 10.9048 285.986C10.9048 286.121 11.0161 286.226 11.145 286.226Z" fill="#E0CAD2"/>
<path d="M20.0915 301.194H73.8735C74.0024 301.194 74.1137 301.023 74.1137 300.812C74.1137 300.601 74.0083 300.431 73.8735 300.431H20.0915C19.9626 300.431 19.8513 300.601 19.8513 300.812C19.8572 301.023 19.9626 301.194 20.0915 301.194Z" fill="#E0CAD2"/>
<path d="M-12.6848 281.425H21.6034C21.6855 281.425 21.7558 281.272 21.7558 281.084C21.7558 280.897 21.6855 280.744 21.6034 280.744H-12.6848C-12.7668 280.744 -12.8372 280.897 -12.8372 281.084C-12.8372 281.272 -12.7668 281.425 -12.6848 281.425Z" fill="#E0CAD2"/>
<path d="M-11.689 297.695H22.5993C22.6813 297.695 22.7516 297.59 22.7516 297.455C22.7516 297.325 22.6813 297.214 22.5993 297.214H-11.689C-11.771 297.214 -11.8413 297.32 -11.8413 297.455C-11.8413 297.584 -11.771 297.695 -11.689 297.695Z" fill="#E0CAD2"/>
<path d="M442.218 93H113.743C105.3 93 98.4501 99.8616 98.4501 108.32V332.087H457.51V108.32C457.51 99.8616 450.661 93 442.218 93Z" fill="url(#paint1_linear_2002_31347)"/>
<path d="M448.535 312.348H107.967L108.195 119.995C108.207 110.697 115.73 103.167 125.011 103.167H431.941C441.234 103.167 448.769 110.721 448.758 120.03L448.535 312.348Z" fill="url(#paint2_linear_2002_31347)"/>
<path d="M125.966 131.088H431.308C435.667 131.088 439.2 134.627 439.2 138.994C439.2 143.361 435.667 146.901 431.308 146.901H125.966C121.606 146.901 118.073 143.361 118.073 138.994C118.079 134.627 121.612 131.088 125.966 131.088Z" fill="#CDD6F9"/>
<path d="M470.389 350.541H82.2968C72.9455 350.541 65.3636 342.946 65.3636 333.578V330.385H487.323V333.578C487.323 342.946 479.741 350.541 470.389 350.541Z" fill="#BEE4FE"/>
<path d="M301.585 337.869H254.916C250.791 337.869 247.446 334.517 247.446 330.385H309.056C309.056 334.517 305.71 337.869 301.585 337.869Z" fill="url(#paint3_linear_2002_31347)"/>
<path d="M275.527 102.702C275.527 101.199 276.746 99.9784 278.246 99.9784C279.746 99.9784 280.965 101.199 280.965 102.702C280.965 104.205 279.746 105.425 278.246 105.425C276.746 105.431 275.527 104.21 275.527 102.702Z" fill="url(#paint4_linear_2002_31347)"/>
<path d="M276.705 102.702C276.705 101.845 277.396 101.152 278.252 101.152C279.107 101.152 279.799 101.845 279.799 102.702C279.799 103.559 279.107 104.251 278.252 104.251C277.396 104.251 276.705 103.559 276.705 102.702Z" fill="url(#paint5_linear_2002_31347)"/>
<path d="M223.464 330.385H155.169L269.371 93H337.667L223.464 330.385Z" fill="url(#paint6_linear_2002_31347)"/>
<path d="M368.345 93L254.142 330.391H235.105L349.308 93H368.345Z" fill="url(#paint7_linear_2002_31347)"/>
<path d="M122.966 125.154C125.668 125.154 127.858 122.959 127.858 120.252C127.858 117.546 125.668 115.351 122.966 115.351C120.264 115.351 118.073 117.546 118.073 120.252C118.073 122.959 120.264 125.154 122.966 125.154Z" fill="#E26861"/>
<path d="M138.087 125.154C140.789 125.154 142.979 122.959 142.979 120.252C142.979 117.546 140.789 115.351 138.087 115.351C135.385 115.351 133.195 117.546 133.195 120.252C133.195 122.959 135.385 125.154 138.087 125.154Z" fill="#F4D432"/>
<path d="M153.205 125.154C155.907 125.154 158.098 122.959 158.098 120.252C158.098 117.546 155.907 115.351 153.205 115.351C150.503 115.351 148.313 117.546 148.313 120.252C148.313 122.959 150.503 125.154 153.205 125.154Z" fill="#56C15F"/>
<path d="M265.223 178.567L174.686 161.616C173.279 161.352 171.844 161.886 170.977 162.995L139.765 200.878C139.073 201.764 137.263 203.39 137.52 204.476L147.264 245.856C147.464 246.678 148.618 247.306 149.297 247.829L205.804 292.684C206.63 293.318 207.685 293.588 208.722 293.43L255.238 284.455C256.58 284.25 257.928 284.766 258.777 285.805L278.06 306.443C279.226 307.869 281.283 308.25 282.9 307.341L334.408 278.345C335.592 277.681 337.051 277.687 338.223 278.368L351.101 285.846C351.98 286.357 353.035 286.498 354.025 286.234L391.202 276.343C393.013 275.862 394.94 273.45 394.718 271.618L393.587 262.374C393.417 261.006 393.294 260.36 394.454 259.58L410.637 246.625C412.483 245.381 412.828 242.851 411.381 241.173L397.741 225.36C396.487 223.904 392.995 224.045 394.343 222.677L423.82 192.76C424.828 191.739 426.398 187.266 425.895 185.934L424.119 181.209C423.293 179.019 419.391 181.079 417.358 182.289L362.492 214.971C361.15 215.769 359.445 215.675 358.203 214.73L297.366 168.366C296.3 167.55 294.864 167.356 293.611 167.861L267.361 178.362C266.682 178.632 265.943 178.702 265.223 178.567Z" fill="#C69C6D"/>
<path d="M356.881 143.239L425.979 138.191V303.99L356.881 309.038V143.239Z" fill="#BAD88B"/>
<path d="M204.113 143.55L280.494 138.191V303.99L204.113 309.349V143.55Z" fill="#BAD88B"/>
<path d="M356.881 143.397L280.494 138.349V304.142L356.881 309.19V143.397Z" fill="#D1EDA2"/>
<path d="M204.113 143.55L135.015 138.191V303.99L204.113 309.349V143.55Z" fill="#D1EDA2"/>
<path d="M267.447 139.107L264.64 140.069L259.771 141.719L229.291 152.09L225.155 153.505L204.378 160.572L204.108 160.525L188.417 157.631L186.255 157.232L187.556 154.397L189.871 154.826L203.845 157.396L204.108 157.308L255.014 139.981L255.025 139.975H255.037L260.152 139.623L262.836 139.435H262.859L267.447 139.107Z" fill="white"/>
<path d="M342.269 142.429L338.296 151.774L336.955 154.932L314.959 206.484L313.746 209.343L313.729 209.378L297.411 205.803L291.762 204.489L280.425 201.847L279.013 201.519L276.722 199.476L225.154 153.505L223.959 152.443L227.762 150.729L229.291 152.091L252.072 172.399L255.136 175.135L281.977 199.059L310.547 205.492L325.301 170.967L326.613 167.886L337.576 142.118L342.269 142.429Z" fill="white"/>
<path d="M328.821 168.96L325.985 171.302L325.3 170.967L280.494 149.226L279.199 148.598L276.404 147.606L272.326 146.168L259.77 141.719L258.651 141.325L260.151 139.623L262.834 139.435H262.858L264.639 140.069L280.494 145.692L281.894 146.191L326.612 167.885L328.821 168.96Z" fill="white"/>
<path opacity="0.31" d="M425.973 180.423V183.622L413.833 180.411L409.48 179.261L355.645 165.021L336.954 154.931L333.896 153.282L336.913 151.028L338.296 151.773L358.118 162.473L425.973 180.423Z" fill="white"/>
<path d="M356.607 218.751L311.361 208.873L312.856 206.073L357.157 215.752L397.428 213.363L397.861 216.304L356.607 218.751Z" fill="white"/>
<path d="M254.532 175.927L250.348 174.629L273.293 144.906L277.482 146.209L254.532 175.927Z" fill="white"/>
<path d="M311.478 288.97L310.863 291.898L305.596 291.452L279.563 289.251L203.873 274.366L135.016 278.674V275.698L181.608 272.787L187.737 272.405L204.348 271.367L204.805 271.455L248.04 279.96L252.927 280.916L280.571 286.352L310.465 288.881L311.478 288.97Z" fill="white"/>
<path d="M188.51 272.869L185.299 275.011L181.608 272.787L135.016 244.742V240.662L171.261 262.486L174.981 264.722L187.737 272.405L188.51 272.869Z" fill="white"/>
<path d="M332.32 278.61L291.393 203.825L295.799 202.857L336.726 277.642L332.32 278.61Z" fill="white"/>
<path d="M250.525 282.636L247.044 280.67L279.024 257.937L316.019 245.065L318.263 247.653L281.971 260.285L250.525 282.636Z" fill="white"/>
<path opacity="0.31" d="M394.052 229.827L425.979 232.075V229.099L395.213 226.945L414.501 178.762L409.984 178.034L395.799 213.474L357.169 215.764L314.947 206.537L314.964 206.49L336.96 154.937L338.302 151.779L342.274 142.435L337.587 142.123L326.624 167.891L325.312 170.978L310.564 205.503L281.995 199.076L255.153 175.152L252.083 172.416L229.302 152.113L227.773 150.746L223.97 152.46L225.166 153.522L276.733 199.487L203.832 213.545L153.841 212.083L172.304 188.129L173.2 186.967L188.434 157.643L189.887 154.837L196.057 142.939L191.34 142.575L169.614 184.443L135.033 177.083V180.205L167.845 187.184L135.033 229.745V236.489L151.603 214.989V214.983L196.157 216.28L170.095 264.681L174.507 265.638L201.008 216.421L204.418 216.521L280.424 201.864H280.43L291.756 204.5V204.506L314.291 245.681L279.024 257.937L248.034 279.96L219.06 274.26L204.805 271.454L204.342 271.366L187.737 272.405L181.608 272.787L135.016 275.698V278.674L203.867 274.366L219.06 277.353L249.581 283.358H249.605L279.557 289.251L305.584 291.452H305.59L281.403 304.201L287.883 304.629L358.006 267.663L364.54 266.371H364.551L396.859 306.12L401.822 305.762L369.075 265.485L425.968 254.245V251.151L382.035 259.827L394.052 229.827ZM310.465 288.881L280.577 286.352L253.009 280.934L252.933 280.916L281.971 260.279L315.838 248.498L331.792 277.641L310.465 288.881ZM355.751 265.015L335.63 275.622H335.624L319.986 247.049L297.416 205.803L311.367 208.861L311.361 208.873L356.606 218.757L394.574 216.503L376.82 260.86L355.751 265.015Z" fill="white"/>
<path d="M223.672 204.976L263.374 197.322L237.429 174.195L215.615 178.328L223.672 204.976Z" fill="#A8C673"/>
<path d="M367.961 208.661L390.637 207.317L400.99 181.884L376.557 175.422L367.961 208.661Z" fill="#A8C673"/>
<path d="M425.973 173.051L374.957 160.243V141.918L425.979 138.191L425.973 173.051Z" fill="#EBEBEB"/>
<path d="M210.107 163.032L222.81 158.712L234.177 168.878L213.91 172.787L210.107 163.032Z" fill="#A8C673"/>
<path d="M293.033 262.574L313.734 255.372L324.819 275.634L309.995 283.452L293.033 282.014V262.574Z" fill="#A8C673"/>
<path d="M291.727 144.495V139.066L332.848 141.807L324.861 160.572L291.727 144.495Z" fill="#DBDBDB"/>
<path d="M142.743 237.446L169.145 253.347L186.207 221.522L155.598 220.63L142.743 237.446Z" fill="#A8C673"/>
<path d="M142.293 173.55V147.67L179.593 150.687L165.202 178.427L142.293 173.55Z" fill="#A8C673"/>
<path d="M142.293 144.495L179.593 147.518L182.563 141.878L142.293 138.755V144.495Z" fill="#DBDBDB"/>
<path d="M211.901 304.964V280.711L239.257 286.123V303.045L211.901 304.964Z" fill="#A8C673"/>
<path d="M140.84 282.601L162.109 281.269V302.529L140.84 300.879V282.601Z" fill="#DBDBDB"/>
<path d="M408.478 300.375L384.754 271.185L425.974 263.044L425.98 299.089L408.478 300.375Z" fill="#EBEBEB"/>
<path d="M350.671 208.574V193.847L327.006 189.175L321.422 202.305L350.671 208.574Z" fill="#A8C673"/>
<path d="M178.3 171.354C170.53 171.354 164.232 177.663 164.232 185.447C164.232 191.662 171.497 204.81 175.089 209.483C175.839 210.457 178.089 210.451 178.839 209.483C182.782 204.417 192.362 192.067 192.362 185.447C192.368 177.663 186.069 171.354 178.3 171.354ZM178.3 191.944C174.72 191.944 171.814 189.033 171.814 185.447C171.814 181.86 174.72 178.949 178.3 178.949C181.88 178.949 184.786 181.86 184.786 185.447C184.786 189.033 181.88 191.944 178.3 191.944Z" fill="#C44949"/>
<path d="M175.951 171.354C168.182 171.354 161.883 177.663 161.883 185.447C161.883 191.662 170.801 203.871 174.398 208.543C175.148 209.518 176.607 209.518 177.363 208.549C180.996 203.883 190.025 191.662 190.025 185.447C190.019 177.663 183.72 171.354 175.951 171.354ZM175.951 191.944C172.371 191.944 169.465 189.033 169.465 185.447C169.465 181.86 172.371 178.949 175.951 178.949C179.531 178.949 182.437 181.86 182.437 185.447C182.437 189.033 179.531 191.944 175.951 191.944Z" fill="#E26861"/>
<path d="M340.407 199.856C332.638 199.856 326.339 206.166 326.339 213.949C326.339 220.165 333.605 233.313 337.197 237.985C337.947 238.96 340.196 238.954 340.946 237.985C344.89 232.92 354.47 220.57 354.47 213.949C354.475 206.166 348.177 199.856 340.407 199.856ZM340.407 220.441C336.827 220.441 333.921 217.53 333.921 213.943C333.921 210.357 336.827 207.446 340.407 207.446C343.987 207.446 346.894 210.357 346.894 213.943C346.894 217.53 343.993 220.441 340.407 220.441Z" fill="#C44949"/>
<path d="M338.057 199.856C330.288 199.856 323.989 206.166 323.989 213.949C323.989 220.165 332.907 232.374 336.504 237.046C337.254 238.021 338.713 238.021 339.469 237.052C343.102 232.386 352.131 220.165 352.131 213.949C352.125 206.166 345.826 199.856 338.057 199.856ZM338.057 220.441C334.477 220.441 331.571 217.53 331.571 213.943C331.571 210.357 334.477 207.446 338.057 207.446C341.637 207.446 344.543 210.357 344.543 213.943C344.543 217.53 341.637 220.441 338.057 220.441Z" fill="#E26861"/>
<path d="M179.51 211.307V233.5L245.5 222.5L236 268L267.5 244L338 240.5" stroke="white" stroke-width="1.9" stroke-linecap="round" stroke-linejoin="round" stroke-dasharray="3.8 3.8"/>
</g>
<defs>
<radialGradient id="paint0_radial_2002_31347" cx="0" cy="0" r="1" gradientUnits="userSpaceOnUse" gradientTransform="translate(34 27) rotate(37.6576) scale(647.361 932.528)">
<stop stop-color="#506DFF"/>
<stop offset="0.900566" stop-color="#053DC8"/>
</radialGradient>
<linearGradient id="paint1_linear_2002_31347" x1="763.375" y1="127.068" x2="-326.69" y2="321.13" gradientUnits="userSpaceOnUse">
<stop stop-color="#1E2064"/>
<stop offset="1" stop-color="#3C3B97"/>
</linearGradient>
<linearGradient id="paint2_linear_2002_31347" x1="734.613" y1="127.611" x2="-290.344" y2="310.083" gradientUnits="userSpaceOnUse">
<stop stop-color="#342F97"/>
<stop offset="1" stop-color="#5457D4"/>
</linearGradient>
<linearGradient id="paint3_linear_2002_31347" x1="278.251" y1="371.796" x2="278.251" y2="329.284" gradientUnits="userSpaceOnUse">
<stop stop-color="#C6DDFF"/>
<stop offset="1" stop-color="#779FFF"/>
</linearGradient>
<linearGradient id="paint4_linear_2002_31347" x1="278.25" y1="130.133" x2="278.25" y2="99.1767" gradientUnits="userSpaceOnUse">
<stop stop-color="#C6DDFF"/>
<stop offset="1" stop-color="#779FFF"/>
</linearGradient>
<linearGradient id="paint5_linear_2002_31347" x1="278.25" y1="118.3" x2="278.25" y2="100.698" gradientUnits="userSpaceOnUse">
<stop stop-color="#1E2064"/>
<stop offset="1" stop-color="#3C3B97"/>
</linearGradient>
<linearGradient id="paint6_linear_2002_31347" x1="220.671" y1="264.477" x2="466.521" y2="-237.789" gradientUnits="userSpaceOnUse">
<stop stop-color="white" stop-opacity="0"/>
<stop offset="1" stop-color="white"/>
</linearGradient>
<linearGradient id="paint7_linear_2002_31347" x1="265.32" y1="286.333" x2="511.172" y2="-215.935" gradientUnits="userSpaceOnUse">
<stop stop-color="white" stop-opacity="0"/>
<stop offset="1" stop-color="white"/>
</linearGradient>
<clipPath id="clip0_2002_31347">
<rect width="569" height="395" rx="12" fill="white"/>
</clipPath>
</defs>
</svg>
